<svg id="Filled" height="512" viewBox="0 0 512 512" width="512" xmlns="http://www.w3.org/2000/svg"><path d="m464 232q0 4.02-.15 8a207.283 207.283 0 0 1 -60.78 139.07l-21.78-21.78-117.29-117.29-8-8v208a207.243 207.243 0 0 1 -141.31-55.38q-2.94-2.73-5.76-5.55t-5.55-5.76a207.259 207.259 0 0 1 -55.23-133.31q-.15-3.975-.15-8t.15-8a207.259 207.259 0 0 1 55.23-133.31q2.73-2.94 5.55-5.76t5.76-5.55a207.259 207.259 0 0 1 133.31-55.23q3.975-.15 8-.15t8 .15a207.259 207.259 0 0 1 133.31 55.23q2.94 2.73 5.76 5.55t5.55 5.76a207.259 207.259 0 0 1 55.23 133.31q.15 3.975.15 8z" fill="#ad6643"/><path d="m433.19 232q0 4.02-.18 8a176.629 176.629 0 0 1 -51.72 117.29l-117.29-117.29-8-8v177.19a176.607 176.607 0 0 1 -119.51-46.37c-1.97-1.8-3.9-3.65-5.78-5.53s-3.73-3.81-5.53-5.78a176.508 176.508 0 0 1 -46.19-111.51q-.18-3.975-.18-8t.18-8a176.508 176.508 0 0 1 46.19-111.51c1.8-1.97 3.65-3.9 5.53-5.78s3.81-3.73 5.78-5.53a176.508 176.508 0 0 1 111.51-46.19q3.975-.18 8-.18t8 .18a176.508 176.508 0 0 1 111.51 46.19c1.97 1.8 3.9 3.65 5.78 5.53s3.73 3.81 5.53 5.78a176.508 176.508 0 0 1 46.19 111.51q.18 3.975.18 8z" fill="#f0c6a4"/><path d="m397.043 413.043 18.957 18.957c-32.761 32.761-78.017 56-128 56v-184z" fill="#ad6643"/><path d="m392 408c-27.908 27.9-61.417 48-104 48v-152z" fill="#f0c6a4"/><circle cx="328" cy="408" fill="#d4a811" r="16"/><circle cx="216" cy="136" fill="#d4a811" r="16"/><g fill="#eb423f"><circle cx="136" cy="184" r="24"/><circle cx="304" cy="112" r="24"/><circle cx="376" cy="280" r="24"/><circle cx="208" cy="352" r="24"/></g><circle cx="352" cy="192" fill="#d4a811" r="16"/><circle cx="160" cy="272" fill="#d4a811" r="16"/><path d="m256 448a8 8 0 0 0 8-8v-188.687l133.417 133.417.008.009a8 8 0 0 0 11.3-.009 215.993 215.993 0 1 0 -305.455-305.46 216 216 0 0 0 152.73 368.73zm19.313-224 105.843-105.843a167.84 167.84 0 0 1 43.844 105.843zm149.687 16a167.84 167.84 0 0 1 -43.84 105.843l-105.847-105.843zm-161-27.313v-149.687a167.841 167.841 0 0 1 105.843 43.84zm-16 0-105.843-105.843a167.84 167.84 0 0 1 105.843-43.844zm-11.313 11.313h-149.687a167.841 167.841 0 0 1 43.84-105.843zm0 16-105.843 105.843a167.84 167.84 0 0 1 -43.844-105.843zm-105.85 128.477a183.721 183.721 0 0 0 117.163 48.528v14.839a198.42 198.42 0 0 1 -127.641-52.889zm117.163 32.523a167.841 167.841 0 0 1 -105.843-43.84l105.843-105.846zm144.477-43.833a183.721 183.721 0 0 0 48.528-117.167h14.827a198.4 198.4 0 0 1 -52.869 127.649zm48.528-133.167a183.724 183.724 0 0 0 -48.528-117.163l10.476-10.476a198.4 198.4 0 0 1 52.876 127.639zm-59.842-128.477a183.721 183.721 0 0 0 -117.163-48.523v-14.829a198.4 198.4 0 0 1 127.639 52.876zm-133.163-48.523a183.724 183.724 0 0 0 -117.163 48.523l-10.476-10.476a198.4 198.4 0 0 1 127.639-52.876zm-128.477 59.837a183.721 183.721 0 0 0 -48.523 117.163h-14.829a198.4 198.4 0 0 1 52.876-127.639zm-48.523 133.163a183.724 183.724 0 0 0 48.528 117.163l-10.476 10.476a198.4 198.4 0 0 1 -52.881-127.639z"/><path d="m421.657 437.657a8 8 0 0 0 0-11.314l-128-128a8 8 0 0 0 -13.657 5.657v184a8 8 0 0 0 8 8c48.567 0 96.034-20.72 133.657-58.343zm-125.657 42.136v-16.023c34.5-1.946 66.006-16.588 95.9-44.554l12.675 12.675c-31.453 29.1-69.496 45.88-108.575 47.902zm84.585-71.893c-26.65 24.789-54.454 37.877-84.585 39.833v-124.419z"/><path d="m328 432a24 24 0 1 0 -24-24 24.027 24.027 0 0 0 24 24zm0-32a8 8 0 1 1 -8 8 8.009 8.009 0 0 1 8-8z"/><path d="m192 88h16v16h-16z"/><path d="m112 280h16v16h-16z"/><path d="m392 176h16v16h-16z"/><path d="m304 360h16v16h-16z"/><path d="m192 136a24 24 0 1 0 24-24 24.027 24.027 0 0 0 -24 24zm24-8a8 8 0 1 1 -8 8 8.009 8.009 0 0 1 8-8z"/><path d="m136 216a32 32 0 1 0 -32-32 32.036 32.036 0 0 0 32 32zm0-48a16 16 0 1 1 -16 16 16.019 16.019 0 0 1 16-16z"/><path d="m304 144a32 32 0 1 0 -32-32 32.036 32.036 0 0 0 32 32zm0-48a16 16 0 1 1 -16 16 16.019 16.019 0 0 1 16-16z"/><path d="m408 280a32 32 0 1 0 -32 32 32.036 32.036 0 0 0 32-32zm-48 0a16 16 0 1 1 16 16 16.019 16.019 0 0 1 -16-16z"/><path d="m208 384a32 32 0 1 0 -32-32 32.036 32.036 0 0 0 32 32zm0-48a16 16 0 1 1 -16 16 16.019 16.019 0 0 1 16-16z"/><path d="m352 168a24 24 0 1 0 24 24 24.027 24.027 0 0 0 -24-24zm0 32a8 8 0 1 1 8-8 8.009 8.009 0 0 1 -8 8z"/><path d="m160 296a24 24 0 1 0 -24-24 24.027 24.027 0 0 0 24 24zm0-32a8 8 0 1 1 -8 8 8.009 8.009 0 0 1 8-8z"/></svg>